<svg xmlns="http://www.w3.org/2000/svg" width="430" height="430" style="width:100%;height:100%;transform:translate3d(0,0,0);content-visibility:visible" viewBox="0 0 430 430"><defs><clipPath id="a"><path d="M0 0h430v430H0z"/></clipPath><clipPath id="e"><path d="M0 0h430v430H0z"/></clipPath><clipPath id="d"><path d="M0 0h430v430H0z"/></clipPath><clipPath id="c"><path d="M0 0h430v430H0z"/></clipPath><clipPath id="b"><path d="M0 0h430v430H0z"/></clipPath></defs><g fill="none" clip-path="url(#a)"><g clip-path="url(#b)" style="display:none"><path class="secondary" style="display:none"/><path class="primary" style="display:none"/><path class="secondary" style="display:none"/><g style="display:none"><path class="secondary"/><path class="secondary"/></g><g style="display:none"><path class="secondary"/><path class="secondary"/></g><g style="display:none"><path class="secondary"/><path class="secondary"/></g><g style="display:none"><path class="secondary"/><path class="secondary"/></g><g style="display:none"><path class="secondary"/><path class="secondary"/></g></g><g clip-path="url(#c)" style="display:none"><g style="display:none"><path class="secondary"/><path class="secondary"/></g><g style="display:none"><path class="secondary"/><path class="secondary"/></g><g style="display:none"><path class="secondary"/><path class="secondary"/></g><path class="secondary" style="display:none"/><path class="primary" style="display:none"/><path class="secondary" style="display:none"/></g><g stroke-linecap="round" stroke-linejoin="round" stroke-width="18" clip-path="url(#d)" style="display:block"><path stroke="#07A889" d="M129 41.125q26 25 0 50t0 50m61-100q26 25 0 50t0 50m61-100q26 25 0 50t0 50" class="secondary" style="display:block"/><path stroke="#07A889" d="M0 25v-50" class="secondary" style="display:block" transform="translate(215 200)"/><path stroke="#121330" d="M62.5 12.5H95c31.756 0 57.5-25.744 57.5-57.5s-25.744-57.5-57.5-57.5H62.5m0 0h-215v165c0 22.091 17.909 40 40 40h135c22.091 0 40-17.909 40-40z" class="primary" style="display:block" transform="translate(232.5 277.5)"/><path stroke="#07A889" d="M30 32.5v-40l-10-25h-40l-10 25v40z" class="secondary" style="display:block" transform="translate(215 257.5)"/></g><g clip-path="url(#e)" style="display:none"><g style="display:none"><path class="secondary"/><path class="secondary"/></g><g style="display:none"><path class="secondary"/><path class="secondary"/></g><g style="display:none"><path class="secondary"/><path class="secondary"/></g><path class="secondary" style="display:none"/><path class="primary" style="display:none"/><path class="secondary" style="display:none"/></g></g></svg>